<mxfile host="app.diagrams.net" modified="2021-12-17T18:38:22.607Z" agent="5.0 (X11)" etag="zGsNnbVtFYsLab_-co3e" version="16.0.0" type="github">
  <diagram id="NiFhMhX2ZG5m8S5Pmukn" name="Page-1">
    <mxGraphModel dx="1030" dy="584" grid="1" gridSize="10" guides="1" tooltips="1" connect="1" arrows="1" fold="1" page="1" pageScale="1" pageWidth="850" pageHeight="1100" background="#ffffff" math="0" shadow="0">
      <root>
        <mxCell id="0" />
        <mxCell id="1" parent="0" />
        <mxCell id="gR9zlmmtOx_N6pxoptm5-1" value="create account" style="rounded=0;whiteSpace=wrap;html=1;" vertex="1" parent="1">
          <mxGeometry x="600" y="40" width="120" height="30" as="geometry" />
        </mxCell>
        <mxCell id="gR9zlmmtOx_N6pxoptm5-2" value="log in" style="rounded=0;whiteSpace=wrap;html=1;" vertex="1" parent="1">
          <mxGeometry x="460" y="40" width="120" height="30" as="geometry" />
        </mxCell>
        <mxCell id="gR9zlmmtOx_N6pxoptm5-3" value="contact" style="rounded=1;whiteSpace=wrap;html=1;" vertex="1" parent="1">
          <mxGeometry x="600" y="100" width="120" height="40" as="geometry" />
        </mxCell>
        <mxCell id="gR9zlmmtOx_N6pxoptm5-4" value="about us" style="rounded=1;whiteSpace=wrap;html=1;" vertex="1" parent="1">
          <mxGeometry x="460" y="100" width="120" height="40" as="geometry" />
        </mxCell>
        <mxCell id="gR9zlmmtOx_N6pxoptm5-5" value="courses of study" style="rounded=1;whiteSpace=wrap;html=1;" vertex="1" parent="1">
          <mxGeometry x="320" y="100" width="120" height="40" as="geometry" />
        </mxCell>
        <mxCell id="gR9zlmmtOx_N6pxoptm5-6" value="university authorities" style="rounded=1;whiteSpace=wrap;html=1;" vertex="1" parent="1">
          <mxGeometry x="180" y="100" width="120" height="40" as="geometry" />
        </mxCell>
        <mxCell id="gR9zlmmtOx_N6pxoptm5-7" value="join us!" style="rounded=1;whiteSpace=wrap;html=1;" vertex="1" parent="1">
          <mxGeometry x="40" y="100" width="120" height="40" as="geometry" />
        </mxCell>
        <mxCell id="gR9zlmmtOx_N6pxoptm5-8" value="&lt;font style=&quot;font-size: 26px&quot;&gt;Super Art of our University&lt;/font&gt;" style="whiteSpace=wrap;html=1;aspect=fixed;" vertex="1" parent="1">
          <mxGeometry x="40" y="150" width="480" height="480" as="geometry" />
        </mxCell>
        <mxCell id="gR9zlmmtOx_N6pxoptm5-9" value="&lt;span class=&quot;VIiyi&quot; lang=&quot;en&quot;&gt;&lt;span class=&quot;JLqJ4b ChMk0b&quot;&gt;&lt;span&gt;&lt;span class=&quot;VIiyi&quot; lang=&quot;en&quot;&gt;&lt;span class=&quot;JLqJ4b ChMk0b&quot;&gt;&lt;span&gt;funky&lt;/span&gt;&lt;/span&gt;&lt;/span&gt; motivational quote&lt;/span&gt;&lt;/span&gt;&lt;/span&gt; " style="ellipse;shape=cloud;whiteSpace=wrap;html=1;fontSize=26;" vertex="1" parent="1">
          <mxGeometry x="520" y="230" width="270" height="220" as="geometry" />
        </mxCell>
        <mxCell id="gR9zlmmtOx_N6pxoptm5-10" value="" style="rounded=0;whiteSpace=wrap;html=1;fontSize=26;" vertex="1" parent="1">
          <mxGeometry x="40" y="680" width="170" height="150" as="geometry" />
        </mxCell>
        <mxCell id="gR9zlmmtOx_N6pxoptm5-11" value="" style="rounded=0;whiteSpace=wrap;html=1;fontSize=26;" vertex="1" parent="1">
          <mxGeometry x="240" y="680" width="170" height="150" as="geometry" />
        </mxCell>
        <mxCell id="gR9zlmmtOx_N6pxoptm5-12" value="" style="rounded=0;whiteSpace=wrap;html=1;fontSize=26;" vertex="1" parent="1">
          <mxGeometry x="440" y="680" width="170" height="150" as="geometry" />
        </mxCell>
        <mxCell id="gR9zlmmtOx_N6pxoptm5-13" value="" style="rounded=0;whiteSpace=wrap;html=1;fontSize=26;" vertex="1" parent="1">
          <mxGeometry x="640" y="680" width="170" height="150" as="geometry" />
        </mxCell>
        <mxCell id="gR9zlmmtOx_N6pxoptm5-14" value="more pictures of our staff members and university buildings" style="rounded=0;whiteSpace=wrap;html=1;fontSize=26;" vertex="1" parent="1">
          <mxGeometry x="70" y="730" width="700" height="60" as="geometry" />
        </mxCell>
      </root>
    </mxGraphModel>
  </diagram>
</mxfile>
